# xmcd
#
# Track frame offsets:
#	150
#	18242
#	33588
#	48982
#	61722
#	79427
#	93262
#	104739
#	121388
#	135673
#	154241
#	167719
#	180383
#	195430
#	214596
#
# Disc length: 2997 seconds
#
# Revision: 0
# Processed by: cddbd v1.5PL3 Copyright (c) Steve Scherf et al.
# Submitted via: dBpowerAMP V4.0
#
DISCID=c40bb30f
DTITLE=Emily Druce - New Day
DYEAR=2002
DGENRE=Blues
TTITLE0=Call Me
TTITLE1=Come On In My Kitchen
TTITLE2=Turn Away
TTITLE3=Maybe Some Day
TTITLE4=Only One Road
TTITLE5=A Little More Of You
TTITLE6=Station Door Blues
TTITLE7=Down On My Knees
TTITLE8=Ain't No Need
TTITLE9=If You Get A Good Feeling
TTITLE10=When I Arrive
TTITLE11=Can't Stop Thinking About You
TTITLE12=Don't Drive Me Away
TTITLE13=New Day
TTITLE14=Going Down This Road
EXTD=
EXTT0=
EXTT1=
EXTT2=
EXTT3=
EXTT4=
EXTT5=
EXTT6=
EXTT7=
EXTT8=
EXTT9=
EXTT10=
EXTT11=
EXTT12=
EXTT13=
EXTT14=
PLAYORDER=
